<?xml version="1.0" standalone="no"?>
<!DOCTYPE svg PUBLIC "-//W3C//DTD SVG 20010904//EN"
 "http://www.w3.org/TR/2001/REC-SVG-20010904/DTD/svg10.dtd">
<svg version="1.0" xmlns="http://www.w3.org/2000/svg"
 width="700.000000pt" height="700.000000pt" viewBox="0 0 700.000000 700.000000"
 preserveAspectRatio="xMidYMid meet">
<metadata>
Created by potrace 1.11, written by Peter Selinger 2001-2013
</metadata>
<g transform="translate(0.000000,700.000000) scale(0.100000,-0.100000)"
fill="#000000" stroke="none">
<path d="M3358 6995 c-2 -1 -34 -5 -73 -8 -60 -5 -142 -20 -235 -43 -255 -62
-546 -215 -750 -394 -53 -46 -86 -79 -201 -200 -22 -23 -93 -120 -147 -200
-84 -124 -209 -407 -237 -537 -3 -13 -7 -33 -10 -45 -55 -233 -66 -546 -25
-733 5 -22 11 -56 14 -76 9 -62 74 -263 112 -350 260 -594 809 -1011 1439
-1095 22 -3 42 -8 45 -10 6 -6 7 -814 1 -814 -2 0 -35 33 -75 73 -137 141
-271 225 -442 276 -131 39 -222 47 -574 46 l-335 0 0 -160 c0 -192 6 -243 45
-364 19 -56 77 -178 113 -236 58 -95 195 -232 295 -298 73 -47 205 -113 249
-123 16 -3 47 -12 71 -20 23 -8 57 -14 75 -14 18 0 37 -4 44 -8 6 -4 -254 -7
-579 -7 -324 0 -592 -3 -595 -8 -4 -6 190 -606 217 -672 4 -11 78 -235 165
-497 l156 -478 1378 0 1379 0 10 28 c10 25 309 928 448 1352 35 107 70 213 78
236 l14 41 -579 -1 c-318 -1 -579 2 -579 7 0 4 10 7 23 7 41 0 170 41 253 79
275 129 477 368 561 664 22 80 26 116 30 284 l5 193 -341 -2 c-187 -1 -371 -5
-408 -10 -110 -14 -211 -45 -318 -98 -117 -57 -205 -122 -295 -216 -36 -37
-67 -66 -69 -63 -3 3 -4 628 -2 770 l1 36 62 7 c34 4 113 21 177 37 899 226
1492 1084 1385 2002 -23 197 -83 408 -165 582 -29 62 -138 251 -160 279 -151
190 -234 278 -353 375 -261 213 -604 359 -936 399 -70 9 -354 14 -362 7z"/>
</g>
</svg>
